<svg width="51" height="50" viewBox="0 0 51 50" fill="none" xmlns="http://www.w3.org/2000/svg">
<path d="M48.5671 16.5754C48.5671 16.5754 48.5671 16.5754 48.5671 16.4501C46.8004 11.6265 43.5948 7.46205 39.384 4.51991C35.1732 1.57778 30.1603 0 25.0234 0C19.8865 0 14.8736 1.57778 10.6628 4.51991C6.45193 7.46205 3.24636 11.6265 1.47971 16.4501C1.47971 16.4501 1.47971 16.4501 1.47971 16.5754C-0.493236 22.0185 -0.493236 27.9815 1.47971 33.4246C1.47971 33.4246 1.47971 33.4246 1.47971 33.5499C3.24636 38.3735 6.45193 42.5379 10.6628 45.4801C14.8736 48.4222 19.8865 50 25.0234 50C30.1603 50 35.1732 48.4222 39.384 45.4801C43.5948 42.5379 46.8004 38.3735 48.5671 33.5499C48.5671 33.5499 48.5671 33.5499 48.5671 33.4246C50.54 27.9815 50.54 22.0185 48.5671 16.5754ZM5.56663 30.0146C4.69716 26.7281 4.69716 23.2719 5.56663 19.9854H10.2302C9.82914 23.3164 9.82914 26.6836 10.2302 30.0146H5.56663ZM7.62263 35.0293H11.1329C11.7214 37.2654 12.5626 39.4272 13.6402 41.473C11.1813 39.798 9.12575 37.5969 7.62263 35.0293ZM11.1329 14.9707H7.62263C9.10412 12.411 11.1333 10.2105 13.565 8.52694C12.5133 10.576 11.6974 12.7378 11.1329 14.9707ZM22.4659 44.3063C19.3864 42.0464 17.2235 38.7532 16.3732 35.0293H22.4659V44.3063ZM22.4659 30.0146H15.295C14.8271 26.6879 14.8271 23.3121 15.295 19.9854H22.4659V30.0146ZM22.4659 14.9707H16.3732C17.2235 11.2468 19.3864 7.95357 22.4659 5.69368V14.9707ZM42.3239 14.9707H38.8136C38.2251 12.7346 37.3839 10.5728 36.3063 8.52694C38.7652 10.202 40.8207 12.4031 42.3239 14.9707ZM27.4806 5.69368C30.5601 7.95357 32.723 11.2468 33.5733 14.9707H27.4806V5.69368ZM27.4806 44.3063V35.0293H33.5733C32.723 38.7532 30.5601 42.0464 27.4806 44.3063ZM34.6515 30.0146H27.4806V19.9854H34.6515C35.1194 23.3121 35.1194 26.6879 34.6515 30.0146ZM36.3815 41.473C37.4591 39.4272 38.3003 37.2654 38.8888 35.0293H42.3991C40.896 37.5969 38.8404 39.798 36.3815 41.473ZM44.3799 30.0146H39.7162C39.9202 28.3509 40.0207 26.6762 40.0171 25C40.0199 23.3239 39.9194 21.6491 39.7162 19.9854H44.3799C45.2493 23.2719 45.2493 26.7281 44.3799 30.0146Z" fill="#9FC9EF"/>
</svg>
